<?xml version="1.0" encoding="UTF-8"?><svg id="Layer_2" xmlns="http://www.w3.org/2000/svg" viewBox="0 0 151.29 108.87"><defs><style>.cls-1{fill:#8ccbf9;}.cls-2{fill:#3fa9f5;}</style></defs><g id="_2web"><g><path class="cls-2" d="M135.61,9.19h-60.31c-.58,.03-1.43,.05-2.47,0-2.09-.1-3.14-.15-4.24-.71-.94-.48-2.12-1.41-2.12-1.41h0c-.22-.26-.55-.68-.93-1.2-1.24-1.75-1.6-2.89-2.05-3.6-.62-.97-2.02-2.03-5.49-2.27H7.76C3.47,0,0,3.47,0,7.76v14.88c0,.31,.02,.62,.06,.92-.04,.44-.06,.87-.06,1.32V93.19c0,8.66,7.02,15.69,15.69,15.69h119.92c8.66,0,15.69-7.02,15.69-15.69V24.88c0-8.66-7.02-15.69-15.69-15.69Z"/><rect class="cls-1" x="2.83" y="13.43" width="144.93" height="91.91" rx="16.17" ry="16.17"/></g></g></svg>