<?xml version="1.0" encoding="UTF-8"?><svg id="Layer_2" xmlns="http://www.w3.org/2000/svg" viewBox="0 0 214 154"><defs><style>.cls-1{fill:#ff7bac;}.cls-2{fill:#bf5c81;}</style></defs><g id="assets"><g id="Mappe1"><g><path class="cls-2" d="M191.81,13H106.5c-.82,.04-2.03,.07-3.5,0-2.96-.14-4.44-.21-6-1-1.33-.68-3-2-3-2h0c-.31-.37-.78-.96-1.31-1.7-1.76-2.48-2.26-4.09-2.91-5.09-.88-1.37-2.86-2.88-7.76-3.22H10.98C4.91,0,0,4.91,0,10.98v21.04c0,.44,.03,.87,.08,1.3-.05,.62-.08,1.24-.08,1.87v96.62c0,12.25,9.93,22.19,22.19,22.19H191.81c12.25,0,22.19-9.93,22.19-22.19V35.19c0-12.25-9.93-22.19-22.19-22.19Z"/><rect class="cls-1" x="4" y="19" width="205" height="130" rx="16.17" ry="16.17"/></g></g></g></svg>