<?xml version="1.0" encoding="UTF-8"?><svg id="Layer_2" xmlns="http://www.w3.org/2000/svg" viewBox="0 0 214 173"><defs><style>.cls-1{fill:#fff;}.cls-2{fill:#333;}.cls-3{fill:#8ccbf9;}.cls-4{fill:#3fa9f5;}</style></defs><g id="assets"><g id="Mappe1"><g><path class="cls-4" d="M191.81,32H106.5c-.82,.04-2.03,.07-3.5,0-2.96-.14-4.44-.21-6-1-1.33-.68-3-2-3-2h0c-.31-.37-.78-.96-1.31-1.7-1.76-2.48-2.26-4.09-2.91-5.09-.88-1.37-2.86-2.88-7.76-3.22H10.98C4.91,19,0,23.91,0,29.98v21.04c0,.44,.03,.87,.08,1.3-.05,.62-.08,1.24-.08,1.87v96.62c0,12.25,9.93,22.19,22.19,22.19H191.81c12.25,0,22.19-9.93,22.19-22.19V54.19c0-12.25-9.93-22.19-22.19-22.19Z"/><g><polygon class="cls-2" points="174.58 165.22 14.16 161.57 6 0 166.42 3.65 174.58 165.22"/><polygon class="cls-1" points="169.14 162.65 19.43 159.24 11.64 5.25 161.36 8.66 169.14 162.65"/><polygon class="cls-2" points="151.62 30.92 21.62 27.96 21.24 20.56 151.24 23.52 151.62 30.92"/><polygon class="cls-2" points="156.16 126.05 26.16 123.09 25.79 115.69 155.79 118.65 156.16 126.05"/><polygon class="cls-2" points="156.51 102.46 26.51 99.5 26.14 92.1 156.14 95.06 156.51 102.46"/><polygon class="cls-2" points="153.55 77.09 23.54 74.13 23.17 66.73 153.17 69.69 153.55 77.09"/><polygon class="cls-2" points="152.59 55.36 22.59 52.4 22.22 45 152.22 47.96 152.59 55.36"/><polygon class="cls-2" points="157.57 149.64 27.57 146.68 27.2 139.28 157.2 142.24 157.57 149.64"/></g><rect class="cls-3" x="4" y="38" width="205" height="130" rx="16.17" ry="16.17"/></g></g></g></svg>